<svg width="196" height="109" viewBox="0 0 196 109" fill="none" xmlns="http://www.w3.org/2000/svg">
<g id="GE-KK">
<mask id="path-1-inside-1_848_1557" fill="white">
<path d="M143.97 12.15L144.35 12.03L144.94 11.6L146.65 9.97L147.23 9.26999L147.42 8.54999L147.43 6.25L147.6 5.37997L148.25 4.13998L149.12 3.06998L149.53 2.29999L150.36 1.19998L150.74 0.459991L151.14 0.0999756L151.55 0L151.96 0.0799866L152.69 0.410004L153.69 0.669983L155.85 1.70999L156.64 1.79999L159.73 1.87L161.84 2.78998L162.23 2.72998L163.3 1.97L164.51 1.45999L165.42 2.12L166.76 3.5L168.5 6.89999L169.35 7.98999L169.86 8.89999L171.26 10.48L172.18 12.37L172.54 12.78L172.92 12.98L173.51 13.03L173.95 12.94L174.68 12.59L175.13 12.48L177.74 12.41L178.62 12.51L178.86 12.65L179.01 12.87L179.22 13.63L179.55 14.37L179.82 15.5L181.5 18.86L181.59 19.63L181.64 22.65L182.11 23.82L182.36 25.42L182.7 26.15L182.99 27.27L183.38 28.15L183.6 29.61L183.92 30.33L184 30.74L183.93 31.14L183.3 32.36L181.87 33.93L181.09 35.18L179.41 36.85L179.12 37.38L179.07 37.97L179.16 38.4L180.78 41.45L180.89 41.86L180.86 42.58L180.45 43.43L180.34 43.86L180.32 44.61L180.43 45.19L181.67 47.66L181.93 47.97L182.28 48.21L182.86 48.33L184.39 48.42L185.89 48.93L188.82 49.04L189.86 49.46L190.87 49.69L191.62 50.15L193.49 51.94L193.91 52.48L193.96 52.85L193.11 54.59L193.1 55.15L195.31 59.43L195.64 60.65L194.13 59.82L192.91 59.6L192.04 59.86L190.79 60.8L189.9 60.74L188.99 61L187.45 61.02L186.67 61.9L185.69 64.75L184.71 65.19L183.06 66.36L182.2 67.38L181.06 68.39L177.78 69.05L177.01 69.5L175.3 71.6L173.76 72.92L172.19 75.46L169.98 78.7L168.87 79.96L167.45 80.82L165.83 81.28L164.85 81.65L162.18 83.63L159.61 84.71L157.91 85.27L157.17 85.72L156.19 85.66L155.28 86.1L151.62 89.34L151.21 89.94L150.99 91.26L150.32 92.42L149.21 92.54L147.96 92.48L145.29 91.77L144.75 91.75L143.82 92.05L143.28 92.08L142.47 91.52L140.93 90.16L140.43 90.04L139.82 90.06L138.96 89.93L136.87 88.99L135.37 86.16L134.98 85.76L134.51 85.82L134.15 86.03L133.47 87.8L133.3 88.55L133.79 89.17L133.92 89.71L133.01 90.51L132.78 92.58L134.85 96.1L135.69 96.52L137.93 97.1L139.66 98.08L140.4 98.56L140.89 99.14L140.73 99.82L138.44 100.01L137.26 99.88L134.4 98.49L133.29 98.21L132.43 98.3L131.53 98.78L130.57 98.4L128.26 99.17H126.62L125.69 99.33L124.59 100.27L123.3 100.64L122.66 100.3L122.55 98.98L122.2 98.61L121.67 98.39L120.56 98.43L119.37 98.84L118.69 98.79L118.01 98.59L117.35 97.76L117.01 96.86L116.41 96.56L112.83 96.63L111.55 96.24L110.77 96.12L110.41 96.36L109.51 98.38L109.15 100.13L108.89 102.16L108.74 102.73L108.3 103.29L107.9 103.54L107.07 103.84L107.08 101.66L106.7 101.01L106.13 101.07L104.29 101.64L101.65 103.02L101.22 103.08L100.48 102.82L97.81 102.26L97.02 102.32L95.47 102.76L93.13 103.93L92.27 104.06L91.48 104.04L90.06 103.51L86.53 101.13L84.32 99.05L80.25 96.54L79.57 96.32L79 96.38L78.31 96.76L77.94 97.44L77.78 98.9L77.8 99.44L77.5 100.15L77.03 100.42L76.25 100.23L73.94 99.23L71.66 99.01L69.26 99.33L67.94 99.02L67.55 98.69L67.09 96.15L66.5 95.35L65.76 94.8L65.36 94.65L64.02 96.1L63.52 96.2L62.55 96.18L61.73 95.96L60.29 94.64L59.61 94.67L59.13 95.2L58.94 95.7L59.04 96.41L59.8 98L59.94 98.58L58.64 101.67L58.06 102.23L57.26 102.75L55.75 103.2L54.64 103.29L49.75 103.11L47.47 102.89L46.47 102.95L45.36 103.18L43.45 104.19L42.23 104.57L41.09 104.7L39.62 105.21L38.46 106.06L36.54 108.32L36.29 108.36L35.52 105.34L35.34 104.32L34.96 103.46L34.85 103.01L34.83 98.96L34.69 98.03L33.99 96.66L32.58 95.11L32.07 94.21L31.24 93.12L30.86 91.89L30.44 90.86L30.37 89.34L30.53 88.18L30.86 87.45L31.23 86.2L31.88 84.98L32.69 83.93L32.87 83.47L32.94 82.46L32.86 78.68L32.41 77.47L32.15 75.89L31.58 74.63L31.03 73.75L30.71 73.49L30.42 73.4L28.34 73.3L28.08 73.15L27.87 72.76L27.85 64.37L27.71 63.56L27.33 62.66L27.22 61.66L27.26 60.62L27.52 59.71L25.88 58.98L24.76 58.16L24.01 57.77L23.56 57.25L23.42 56.62L23.45 55.98L23.57 55.51L23.99 54.64L24.09 54.01L24.08 53.52L23.88 52.93L23.26 52.4L18.59 50.11L17.89 49.92L17.15 49.99L16.41 50.32L15.27 50.62L13.11 51.61L11.15 51.76L9.62003 52.26L0.0700073 52.24L0 50.15L0.170013 49.21L0.620026 48.71L2.49002 47.84L2.91 47.48L3.17001 46.95L3.36002 45.54L3.76001 44.49L3.85001 43.46L3.83002 38.94L3.74002 38.27L3.29001 37.24L3.21002 36.26L3.34003 35.63L3.72 34.75L3.95001 33.33L4.32001 32.44L4.42001 31.98L4.49002 26.19L4.64001 25.63L5.27002 24.02L6.15002 23.46L6.54001 23.31L8.10001 23.23L9.18002 23.32L10.36 23.78L12 24.04L12.75 24.38L13.89 24.67L14.78 25.06L16.28 25.28L17.28 25.67L17.71 25.64L17.98 25.51L18.57 25.03L23.38 20.31L23.88 19.71L24.34 18.84L25.23 17.75L29.77 17.8L30.65 17.87L31.13 18.02L32.98 18.93L33.66 19.06L43.58 19.15L44.26 19.28L45.33 19.69L48.82 19.81L49.32 19.92L50.23 20.3L51.64 20.43L53.07 20.41L53.75 20.29L57.51 18.52L59.92 18.6L60.84 18.78L61.99 19.34L62.78 19.87L64.7 19.9L66.17 20.44L67.4 20.52L68.43 20.33L73.98 17.63L75.38 17.26L76.66 16.64L77.88 15.7L78.73 15.32L79.1 15.24L79.63 15.48L80.31 16.13L80.81 16.77L81.29 17.68L82.36 18.86L83.18 19.61L83.74 19.89L84.71 20L93.11 20.05L94.08 19.96L94.47 19.76L94.84 19.36L95.17 18.74L95.78 17.93L95.91 17.56L95.88 17.32L95.22 15.58L97.11 15.78L98.14 16.2L98.6 16.3L101.04 16.44L101.94 16.83L103.09 17.12L103.84 17.46L104.99 17.73L105.94 18.24L106.23 18.5L106.78 19.4L108.48 22.79L109.58 23.95L110.92 25.15L111.89 25.08L112.73 25.12L113.21 25.23L114.11 25.62L114.75 25.73L115.57 25.75L116.21 25.65L116.8 25.26L117.46 24.18L118.48 22.8L119.01 22.27L119.77 22.41L120.83 22.73L121.62 23.18L121.89 23.42L121.98 23.66L121.93 24.03L120.99 26.32L121.02 26.69L121.33 26.96L121.91 27.04L126.53 27.03L127.13 27.15L128.16 27.57L130.14 27.73L130.91 28.2L133.16 30.38L134.21 30.98L135.46 31.87L136.25 32.02H139.28L140.26 32.12L146.36 35.09L147.17 35.19L148.16 35.15L149.68 34.63L151.8 34.56L152.56 34.4L155.1 33.2L156.01 32.66L156.27 32.38L156.82 31.48L157.41 30.23L157.65 28.62L158.07 27.61L158.31 26.15L158.68 25.37L158.66 25L158.36 24.73L157.79 24.65L156.33 24.68L155.58 24.89L155.11 25.37L154.27 27.12L153.72 27.84L152.7 28.75L152.28 28.94L151.81 29.02L149.68 29.01L148.74 28.87L146.21 27.63L145.08 26.8L144.09 26.24L143.75 25.81L143.63 25.37V23.14L143.54 22.36L142.26 19.72L141.89 19.23L141.31 18.71L139.47 17.76L139.3 17.55L139.2 17.16L139.29 16.6L139.65 16.1L140.24 15.6L141.17 15.14L141.91 14.56L143.27 13.21L143.97 12.15Z"/>
</mask>
<path d="M143.97 12.15L144.35 12.03L144.94 11.6L146.65 9.97L147.23 9.26999L147.42 8.54999L147.43 6.25L147.6 5.37997L148.25 4.13998L149.12 3.06998L149.53 2.29999L150.36 1.19998L150.74 0.459991L151.14 0.0999756L151.55 0L151.96 0.0799866L152.69 0.410004L153.69 0.669983L155.85 1.70999L156.64 1.79999L159.73 1.87L161.84 2.78998L162.23 2.72998L163.3 1.97L164.51 1.45999L165.42 2.12L166.76 3.5L168.5 6.89999L169.35 7.98999L169.86 8.89999L171.26 10.48L172.18 12.37L172.54 12.78L172.92 12.98L173.51 13.03L173.95 12.94L174.68 12.59L175.13 12.48L177.74 12.41L178.62 12.51L178.86 12.65L179.01 12.87L179.22 13.63L179.55 14.37L179.82 15.5L181.5 18.86L181.59 19.63L181.64 22.65L182.11 23.82L182.36 25.42L182.7 26.15L182.99 27.27L183.38 28.15L183.6 29.61L183.92 30.33L184 30.74L183.93 31.14L183.3 32.36L181.87 33.93L181.09 35.18L179.41 36.85L179.12 37.38L179.07 37.97L179.16 38.4L180.78 41.45L180.89 41.86L180.86 42.58L180.45 43.43L180.34 43.86L180.32 44.61L180.43 45.19L181.67 47.66L181.93 47.97L182.28 48.21L182.86 48.33L184.39 48.42L185.89 48.93L188.82 49.04L189.86 49.46L190.87 49.69L191.62 50.15L193.49 51.94L193.91 52.48L193.96 52.85L193.11 54.59L193.1 55.15L195.31 59.43L195.64 60.65L194.13 59.82L192.91 59.6L192.04 59.86L190.79 60.8L189.9 60.74L188.99 61L187.45 61.02L186.67 61.9L185.69 64.75L184.71 65.19L183.06 66.36L182.2 67.38L181.06 68.39L177.78 69.05L177.01 69.5L175.3 71.6L173.76 72.92L172.19 75.46L169.98 78.7L168.87 79.96L167.45 80.82L165.83 81.28L164.85 81.65L162.18 83.63L159.61 84.71L157.91 85.27L157.17 85.72L156.19 85.66L155.28 86.1L151.62 89.34L151.21 89.94L150.99 91.26L150.32 92.42L149.21 92.54L147.96 92.48L145.29 91.77L144.75 91.75L143.82 92.05L143.28 92.08L142.47 91.52L140.93 90.16L140.43 90.04L139.82 90.06L138.96 89.93L136.87 88.99L135.37 86.16L134.98 85.76L134.51 85.82L134.15 86.03L133.47 87.8L133.3 88.55L133.79 89.17L133.92 89.71L133.01 90.51L132.78 92.58L134.85 96.1L135.69 96.52L137.93 97.1L139.66 98.08L140.4 98.56L140.89 99.14L140.73 99.82L138.44 100.01L137.26 99.88L134.4 98.49L133.29 98.21L132.43 98.3L131.53 98.78L130.57 98.4L128.26 99.17H126.62L125.69 99.33L124.59 100.27L123.3 100.64L122.66 100.3L122.55 98.98L122.2 98.61L121.67 98.39L120.56 98.43L119.37 98.84L118.69 98.79L118.01 98.59L117.35 97.76L117.01 96.86L116.41 96.56L112.83 96.63L111.55 96.24L110.77 96.12L110.41 96.36L109.51 98.38L109.15 100.13L108.89 102.16L108.74 102.73L108.3 103.29L107.9 103.54L107.07 103.84L107.08 101.66L106.7 101.01L106.13 101.07L104.29 101.64L101.65 103.02L101.22 103.08L100.48 102.82L97.81 102.26L97.02 102.32L95.47 102.76L93.13 103.93L92.27 104.06L91.48 104.04L90.06 103.51L86.53 101.13L84.32 99.05L80.25 96.54L79.57 96.32L79 96.38L78.31 96.76L77.94 97.44L77.78 98.9L77.8 99.44L77.5 100.15L77.03 100.42L76.25 100.23L73.94 99.23L71.66 99.01L69.26 99.33L67.94 99.02L67.55 98.69L67.09 96.15L66.5 95.35L65.76 94.8L65.36 94.65L64.02 96.1L63.52 96.2L62.55 96.18L61.73 95.96L60.29 94.64L59.61 94.67L59.13 95.2L58.94 95.7L59.04 96.41L59.8 98L59.94 98.58L58.64 101.67L58.06 102.23L57.26 102.75L55.75 103.2L54.64 103.29L49.75 103.11L47.47 102.89L46.47 102.95L45.36 103.18L43.45 104.19L42.23 104.57L41.09 104.7L39.62 105.21L38.46 106.06L36.54 108.32L36.29 108.36L35.52 105.34L35.34 104.32L34.96 103.46L34.85 103.01L34.83 98.96L34.69 98.03L33.99 96.66L32.58 95.11L32.07 94.21L31.24 93.12L30.86 91.89L30.44 90.86L30.37 89.34L30.53 88.18L30.86 87.45L31.23 86.2L31.88 84.98L32.69 83.93L32.87 83.47L32.94 82.46L32.86 78.68L32.41 77.47L32.15 75.89L31.58 74.63L31.03 73.75L30.71 73.49L30.42 73.4L28.34 73.3L28.08 73.15L27.87 72.76L27.85 64.37L27.71 63.56L27.33 62.66L27.22 61.66L27.26 60.62L27.52 59.71L25.88 58.98L24.76 58.16L24.01 57.77L23.56 57.25L23.42 56.62L23.45 55.98L23.57 55.51L23.99 54.64L24.09 54.01L24.08 53.52L23.88 52.93L23.26 52.4L18.59 50.11L17.89 49.92L17.15 49.99L16.41 50.32L15.27 50.62L13.11 51.61L11.15 51.76L9.62003 52.26L0.0700073 52.24L0 50.15L0.170013 49.21L0.620026 48.71L2.49002 47.84L2.91 47.48L3.17001 46.95L3.36002 45.54L3.76001 44.49L3.85001 43.46L3.83002 38.94L3.74002 38.27L3.29001 37.24L3.21002 36.26L3.34003 35.63L3.72 34.75L3.95001 33.33L4.32001 32.44L4.42001 31.98L4.49002 26.19L4.64001 25.63L5.27002 24.02L6.15002 23.46L6.54001 23.31L8.10001 23.23L9.18002 23.32L10.36 23.78L12 24.04L12.75 24.38L13.89 24.67L14.78 25.06L16.28 25.28L17.28 25.67L17.71 25.64L17.98 25.51L18.57 25.03L23.38 20.31L23.88 19.71L24.34 18.84L25.23 17.75L29.77 17.8L30.65 17.87L31.13 18.02L32.98 18.93L33.66 19.06L43.58 19.15L44.26 19.28L45.33 19.69L48.82 19.81L49.32 19.92L50.23 20.3L51.64 20.43L53.07 20.41L53.75 20.29L57.51 18.52L59.92 18.6L60.84 18.78L61.99 19.34L62.78 19.87L64.7 19.9L66.17 20.44L67.4 20.52L68.43 20.33L73.98 17.63L75.38 17.26L76.66 16.64L77.88 15.7L78.73 15.32L79.1 15.24L79.63 15.48L80.31 16.13L80.81 16.77L81.29 17.68L82.36 18.86L83.18 19.61L83.74 19.89L84.71 20L93.11 20.05L94.08 19.96L94.47 19.76L94.84 19.36L95.17 18.74L95.78 17.93L95.91 17.56L95.88 17.32L95.22 15.58L97.11 15.78L98.14 16.2L98.6 16.3L101.04 16.44L101.94 16.83L103.09 17.12L103.84 17.46L104.99 17.73L105.94 18.24L106.23 18.5L106.78 19.4L108.48 22.79L109.58 23.95L110.92 25.15L111.89 25.08L112.73 25.12L113.21 25.23L114.11 25.62L114.75 25.73L115.57 25.75L116.21 25.65L116.8 25.26L117.46 24.18L118.48 22.8L119.01 22.27L119.77 22.41L120.83 22.73L121.62 23.18L121.89 23.42L121.98 23.66L121.93 24.03L120.99 26.32L121.02 26.69L121.33 26.96L121.91 27.04L126.53 27.03L127.13 27.15L128.16 27.57L130.14 27.73L130.91 28.2L133.16 30.38L134.21 30.98L135.46 31.87L136.25 32.02H139.28L140.26 32.12L146.36 35.09L147.17 35.19L148.16 35.15L149.68 34.63L151.8 34.56L152.56 34.4L155.1 33.2L156.01 32.66L156.27 32.38L156.82 31.48L157.41 30.23L157.65 28.62L158.07 27.61L158.31 26.15L158.68 25.37L158.66 25L158.36 24.73L157.79 24.65L156.33 24.68L155.58 24.89L155.11 25.37L154.27 27.12L153.72 27.84L152.7 28.75L152.28 28.94L151.81 29.02L149.68 29.01L148.74 28.87L146.21 27.63L145.08 26.8L144.09 26.24L143.75 25.81L143.63 25.37V23.14L143.54 22.36L142.26 19.72L141.89 19.23L141.31 18.71L139.47 17.76L139.3 17.55L139.2 17.16L139.29 16.6L139.65 16.1L140.24 15.6L141.17 15.14L141.91 14.56L143.27 13.21L143.97 12.15Z" fill="white" stroke="#D0D1D1" stroke-width="2" mask="url(#path-1-inside-1_848_1557)"/>
</g>
</svg>
